<svg xmlns="http://www.w3.org/2000/svg" viewBox="-50 24 300 264" role="img" aria-label="Assess: Grankiki" xmlns:c2pa="http://c2pa.org/manifest"><metadata><c2pa:manifest>AAAWgmp1bWIAAAAeanVtZGMycGEAEQAQgAAAqgA4m3EDYzJwYQAAABZcanVtYgAAAEdqdW1kYzJtYQARABCAAACqADibcQN1cm46YzJwYToyMjQ4MGEyNC0zZDNhLTRlZDUtOTdmNC04ZmI5YjRjOTQ0Y2UAAAADl2p1bWIAAAApanVtZGMyYXMAEQAQgAAAqgA4m3EDYzJwYS5hc3NlcnRpb25zAAAAALxqdW1iAAAARGp1bWRjYm9yABEAEIAAAKoAOJtxE2MycGEuaW5ncmVkaWVudC52MwAAAAAYYzJzaIgu1darvWw62gV1X2wscWkAAABwY2JvcqNpZGM6Zm9ybWF0bWltYWdlL3N2Zyt4bWxqaW5zdGFuY2VJRHgseG1wOmlpZDo2Yzc0YWM0YS01OTllLTQ4MDUtOTkxOC1iMzk3MTA5NzZmNzBscmVsYXRpb25zaGlwaHBhcmVudE9mAAAB4mp1bWIAAABBanVtZGNib3IAEQAQgAAAqgA4m3ETYzJwYS5hY3Rpb25zLnYyAAAAABhjMnNoF8yx3q/bEM7wQr72yXs15gAAAZljYm9yomdhY3Rpb25zgqJmYWN0aW9ua2MycGEub3BlbmVkanBhcmFtZXRlcnOha2luZ3JlZGllbnRzgaJjdXJseC1zZWxmI2p1bWJmPWMycGEuYXNzZXJ0aW9ucy9jMnBhLmluZ3JlZGllbnQudjNkaGFzaFggVYJYgvFsauMHrOera0e3bMLt8XgXw0j5YtGa6uBpqvykZmFjdGlvbngdY29tLmFudGhyb3BpYy5jbGF1ZGUucHJvdmlkZWRqcGFyYW1ldGVyc6F4H2NvbS5hbnRocm9waWMub3JpZ2luLWNvbmZpZGVuY2VndW5rbm93bmtkZXNjcmlwdGlvbnhmQ2xhdWRlIHByb3ZpZGVkIHRoaXMgZmlsZSBhdCB0aGUgcmVxdWVzdCBvZiBhIHVzZXIgYW5kIG1heSBoYXZlIGNyZWF0ZWQgb3IgbW9kaWZpZWQgdGhlIGZpbGUgY29udGVudHMubXNvZnR3YXJlQWdlbnShZG5hbWVmQ2xhdWRlcmFsbEFjdGlvbnNJbmNsdWRlZPUAAADIanVtYgAAAEBqdW1kY2JvcgARABCAAACqADibcRNjMnBhLmhhc2guZGF0YQAAAAAYYzJzaElL4FrvCiVpOhAidxWbL6AAAACAY2JvcqVjYWxnZnNoYTI1NmNwYWRNAAAAAAAAAAAAAAAAAGRoYXNoWCDdenXQK9ntxcqolcrmTQYMnLZupRanyV3tu/2sUnGbVmRuYW1lbmp1bWJmIG1hbmlmZXN0amV4Y2x1c2lvbnOBomVzdGFydBipZmxlbmd0aBkeBAAAAj5qdW1iAAAAJ2p1bWRjMmNsABEAEIAAAKoAOJtxA2MycGEuY2xhaW0udjIAAAACD2Nib3KlY2FsZ2ZzaGEyNTZpc2lnbmF0dXJleE1zZWxmI2p1bWJmPS9jMnBhL3VybjpjMnBhOjIyNDgwYTI0LTNkM2EtNGVkNS05N2Y0LThmYjliNGM5NDRjZS9jMnBhLnNpZ25hdHVyZWppbnN0YW5jZUlEeCx4bXA6aWlkOjBlYjRiNTFlLTU0ZjctNDZmMi1hNGI5LTQ0ZWFhNjBjMTliOXJjcmVhdGVkX2Fzc2VydGlvbnODomN1cmx4LXNlbGYjanVtYmY9YzJwYS5hc3NlcnRpb25zL2MycGEuaW5ncmVkaWVudC52M2RoYXNoWCBVgliC8Wxq4wes56trR7dswu3xeBfDSPli0Zrq4Gmq/KJjdXJseCpzZWxmI2p1bWJmPWMycGEuYXNzZXJ0aW9ucy9jMnBhLmFjdGlvbnMudjJkaGFzaFggaL9NM7shii4IK4miAj+syDrUqvp/tymU6netVxIzci6iY3VybHgpc2VsZiNqdW1iZj1jMnBhLmFzc2VydGlvbnMvYzJwYS5oYXNoLmRhdGFkaGFzaFggggNQev2tsbR/IazRct5Qs/w81rO0oPWL96+oD+xvsXd0Y2xhaW1fZ2VuZXJhdG9yX2luZm+jZG5hbWVvQW50aHJvcGljIEZpbGVzZ3ZlcnNpb25lMS4wLjBrc3BlY1ZlcnNpb25lMi40LjAAABA4anVtYgAAAChqdW1kYzJjcwARABCAAACqADibcQNjMnBhLnNpZ25hdHVyZQAAABAIY2JvctKEWQISogEmGCFZAgowggIGMIIBjaADAgECAhRA5aAK7sI50L64g/oGQgU9Z1UTADAKBggqhkjOPQQDAzBJMRcwFQYDVQQKEw5BbnRocm9waWMsIFBCQzEuMCwGA1UEAxMlQW50aHJvcGljIENvbnRlbnQgQ3JlZGVudGlhbHMgUm9vdCBDQTAeFw0yNjA4MDcxODQzNTZaFw0yODA4MDYxOTQzNTZaMEQxFzAVBgNVBAoTDkFudGhyb3BpYywgUEJDMSkwJwYDVQQDEyBBbnRocm9waWMgQ2xhdWRlIENvbnRlbnQgU2lnbmluZzBZMBMGByqGSM49AgEGCCqGSM49AwEHA0IABJh6CmvLUBgFFNU0vUKlOVtE6djd17L5SuwX0LemFisBM3dkd/3cyjxFA3Qo5S46fX0/ihY0VZ7mfb9KF703t5OjWDBWMA4GA1UdDwEB/wQEAwIHgDAVBgNVHSUEDjAMBgorBgEEAYPoXgIBMAwGA1UdEwEB/wQCMAAwHwYDVR0jBBgwFoAUzlHiBIFOZFsj+OPEz5o+nMHXXMIwCgYIKoZIzj0EAwMDZwAwZAIwMXMdFJ4BetLLVY7ORuE9noqbbAZOZn/aArXyTwFAZfKrPzxF2vPoJNf1+UCdg1XGAjBwX1zd9WGqYkqmL5SFqw1QySjr1zJfpJM9+1rdDwSPLMOPOjKuiXjoU/pUUeG9RwmhY3BhZFkNngAAAAAAAAAAAAAAAAAAAAAAAAAAAAAAAAAAAAAAAAAAAAAAAAAAAAAAAAAAAAAAAAAAAAAAAAAAAAAAAAAAAAAAAAAAAAAAAAAAAAAAAAAAAAAAAAAAAAAAAAAAAAAAAAAAAAAAAAAAAAAAAAAAAAAAAAAAAAAAAAAAAAAAAAAAAAAAAAAAAAAAAAAAAAAAAAAAAAAAAAAAAAAAAAAAAAAAAAAAAAAAAAAAAAAAAAAAAAAAAAAAAAAAAAAAAAAAAAAAAAAAAAAAAAAAAAAAAAAAAAAAAAAAAAAAAAAAAAAAAAAAAAAAAAAAAAAAAAAAAAAAAAAAAAAAAAAAAAAAAAAAAAAAAAAAAAAAAAAAAAAAAAAAAAAAAAAAAAAAAAAAAAAAAAAAAAAAAAAAAAAAAAAAAAAAAAAAAAAAAAAAAAAAAAAAAAAAAAAAAAAAAAAAAAAAAAAAAAAAAAAAAAAAAAAAAAAAAAAAAAAAAAAAAAAAAAAAAAAAAAAAAAAAAAAAAAAAAAAAAAAAAAAAAAAAAAAAAAAAAAAAAAAAAAAAAAAAAAAAAAAAAAAAAAAAAAAAAAAAAAAAAAAAAAAAAAAAAAAAAAAAAAAAAAAAAAAAAAAAAAAAAAAAAAAAAAAAAAAAAAAAAAAAAAAAAAAAAAAAAAAAAAAAAAAAAAAAAAAAAAAAAAAAAAAAAAAAAAAAAAAAAAAAAAAAAAAAAAAAAAAAAAAAAAAAAAAAAAAAAAAAAAAAAAAAAAAAAAAAAAAAAAAAAAAAAAAAAAAAAAAAAAAAAAAAAAAAAAAAAAAAAAAAAAAAAAAAAAAAAAAAAAAAAAAAAAAAAAAAAAAAAAAAAAAAAAAAAAAAAAAAAAAAAAAAAAAAAAAAAAAAAAAAAAAAAAAAAAAAAAAAAAAAAAAAAAAAAAAAAAAAAAAAAAAAAAAAAAAAAAAAAAAAAAAAAAAAAAAAAAAAAAAAAAAAAAAAAAAAAAAAAAAAAAAAAAAAAAAAAAAAAAAAAAAAAAAAAAAAAAAAAAAAAAAAAAAAAAAAAAAAAAAAAAAAAAAAAAAAAAAAAAAAAAAAAAAAAAAAAAAAAAAAAAAAAAAAAAAAAAAAAAAAAAAAAAAAAAAAAAAAAAAAAAAAAAAAAAAAAAAAAAAAAAAAAAAAAAAAAAAAAAAAAAAAAAAAAAAAAAAAAAAAAAAAAAAAAAAAAAAAAAAAAAAAAAAAAAAAAAAAAAAAAAAAAAAAAAAAAAAAAAAAAAAAAAAAAAAAAAAAAAAAAAAAAAAAAAAAAAAAAAAAAAAAAAAAAAAAAAAAAAAAAAAAAAAAAAAAAAAAAAAAAAAAAAAAAAAAAAAAAAAAAAAAAAAAAAAAAAAAAAAAAAAAAAAAAAAAAAAAAAAAAAAAAAAAAAAAAAAAAAAAAAAAAAAAAAAAAAAAAAAAAAAAAAAAAAAAAAAAAAAAAAAAAAAAAAAAAAAAAAAAAAAAAAAAAAAAAAAAAAAAAAAAAAAAAAAAAAAAAAAAAAAAAAAAAAAAAAAAAAAAAAAAAAAAAAAAAAAAAAAAAAAAAAAAAAAAAAAAAAAAAAAAAAAAAAAAAAAAAAAAAAAAAAAAAAAAAAAAAAAAAAAAAAAAAAAAAAAAAAAAAAAAAAAAAAAAAAAAAAAAAAAAAAAAAAAAAAAAAAAAAAAAAAAAAAAAAAAAAAAAAAAAAAAAAAAAAAAAAAAAAAAAAAAAAAAAAAAAAAAAAAAAAAAAAAAAAAAAAAAAAAAAAAAAAAAAAAAAAAAAAAAAAAAAAAAAAAAAAAAAAAAAAAAAAAAAAAAAAAAAAAAAAAAAAAAAAAAAAAAAAAAAAAAAAAAAAAAAAAAAAAAAAAAAAAAAAAAAAAAAAAAAAAAAAAAAAAAAAAAAAAAAAAAAAAAAAAAAAAAAAAAAAAAAAAAAAAAAAAAAAAAAAAAAAAAAAAAAAAAAAAAAAAAAAAAAAAAAAAAAAAAAAAAAAAAAAAAAAAAAAAAAAAAAAAAAAAAAAAAAAAAAAAAAAAAAAAAAAAAAAAAAAAAAAAAAAAAAAAAAAAAAAAAAAAAAAAAAAAAAAAAAAAAAAAAAAAAAAAAAAAAAAAAAAAAAAAAAAAAAAAAAAAAAAAAAAAAAAAAAAAAAAAAAAAAAAAAAAAAAAAAAAAAAAAAAAAAAAAAAAAAAAAAAAAAAAAAAAAAAAAAAAAAAAAAAAAAAAAAAAAAAAAAAAAAAAAAAAAAAAAAAAAAAAAAAAAAAAAAAAAAAAAAAAAAAAAAAAAAAAAAAAAAAAAAAAAAAAAAAAAAAAAAAAAAAAAAAAAAAAAAAAAAAAAAAAAAAAAAAAAAAAAAAAAAAAAAAAAAAAAAAAAAAAAAAAAAAAAAAAAAAAAAAAAAAAAAAAAAAAAAAAAAAAAAAAAAAAAAAAAAAAAAAAAAAAAAAAAAAAAAAAAAAAAAAAAAAAAAAAAAAAAAAAAAAAAAAAAAAAAAAAAAAAAAAAAAAAAAAAAAAAAAAAAAAAAAAAAAAAAAAAAAAAAAAAAAAAAAAAAAAAAAAAAAAAAAAAAAAAAAAAAAAAAAAAAAAAAAAAAAAAAAAAAAAAAAAAAAAAAAAAAAAAAAAAAAAAAAAAAAAAAAAAAAAAAAAAAAAAAAAAAAAAAAAAAAAAAAAAAAAAAAAAAAAAAAAAAAAAAAAAAAAAAAAAAAAAAAAAAAAAAAAAAAAAAAAAAAAAAAAAAAAAAAAAAAAAAAAAAAAAAAAAAAAAAAAAAAAAAAAAAAAAAAAAAAAAAAAAAAAAAAAAAAAAAAAAAAAAAAAAAAAAAAAAAAAAAAAAAAAAAAAAAAAAAAAAAAAAAAAAAAAAAAAAAAAAAAAAAAAAAAAAAAAAAAAAAAAAAAAAAAAAAAAAAAAAAAAAAAAAAAAAAAAAAAAAAAAAAAAAAAAAAAAAAAAAAAAAAAAAAAAAAAAAAAAAAAAAAAAAAAAAAAAAAAAAAAAAAAAAAAAAAAAAAAAAAAAAAAAAAAAAAAAAAAAAAAAAAAAAAAAAAAAAAAAAAAAAAAAAAAAAAAAAAAAAAAAAAAAAAAAAAAAAAAAAAAAAAAAAAAAAAAAAAAAAAAAAAAAAAAAAAAAAAAAAAAAAAAAAAAAAAAAAAAAAAAAAAAAAAAAAAAAAAAAAAAAAAAAAAAAAAAAAAAAAAAAAAAAAAAAAAAAAAAAAAAAAAAAAAAAAAAAAAAAAAAAAAAAAAAAAAAAAAAAAAAAAAAAAAAAAAAAAAAAAAAAAAAAAAAAAAAAAAAAAAAAAAAAAAAAAAAAAAAAAAAAAAAAAAAAAAAAAAAAAAAAAAAAAAAAAAAAAAAAAAAAAAAAAAAAAAAAAAAAAAAAAAAAAAAAAAAAAAAAAAAAAAAAAAAAAAAAAAAAAAAAAAAAAAAAAAAAAAAAAAAAAAAAAAAAAAAAAAAAAAAAAAAAAAAAAAAAAAAAAAAAAAAAAAAAAAAAAAAAAAAAAAAAAAAAAAAAAAAAAAAAAAAAAAAAAAAAAAAAAAAAAAAAAAAAAAAAAAAAAAAAAAAAAAAAAAAAAAAAAAAAAAAAAAAAAAAAAAAAAAAAAAAAAAAAAAAAAAAAAAAAAAAAAAAAAAAAAAAAAAAAAAAAAAAAAAAAAAAAAAAAAAAAAAAAAAAAAAAAAAAAAAAAAAAAAAAAAAAAAAAAAAAAAAAAAAAAAAAAAAAAAAAAAAAAAAAAAAAAAAAAAAAAAAAAAAAAAAAAAAAAAAAAAAAAAAAAAAAAAAAAAAAAAAAAAAAAAAAAAAAAAAAAAAAAAAAAAAAAAAAAAAAAAAAAAAAAAAAAAAAAAAAAAAAAAAAAAAAAAAAAAAAAAAAAAAAAAAAAAAAAAAAAAAAAAAAAAAAAAAAAAAAAAAAAAAAAAAAAAAAAAAAAAAAAAAAAAAAAAAAAAAAAAAAAAAAAAAAAAAAAAAAAAAAAAAAAAAAAAAAAAAAAAAAAAAAAAAAAAAAAAAAAAAAAAAAAAAAAAAAAAAAAAAAAAAAAAAAAAAAAAAAAAAAAAAAAAAAAAAAAAAAAAAAAAAAAAAAAAAAAAAAAAAAAAAAAAAAAAAAAAAAAAAAAAAAAAAAAAAAAAAAAAAAAAAAAAAAAAAAAAAAAAAAAAAAAAAAAAAAAAAAAAAAAAAAAAAAAAAAAAAAAAAAAAAAAAAAAAAAAAAAAAAAAAAAAAAAAAAAAAAAAAAAAAAAAAAAAAAAAAAAAAAAAAAAAAAAAAAAAAAAAAAAAAAAAAAAAAAAAAAAAAAAAAAAAAAAAAAAAAAAAAAAAAAAAAAAAAAAAAAAAAAAAAAAAAAAAAAAAAAAAAAAAAAAAAAAAAAAAAAAAAAAAAAAAAAAAAAAAAAAAAAAAAAAAAAAAAAAAAAAAAAAAAAAAAAAAAAAAAAAAAAAAAAAAAAAAAAAAAAAAAAAAAAAAAAAAAAAAAAAAAAAAAAAAAAAAAAAAAAAAAAAAAAAAAAAAAAAAAAAAAAAAAAAAAAAAAAAAAAAAAAAAAAAAAAAAAAAAAAAAAAAAAAAAAAAAAAAAAAAAAAAAAAAAAAAAAAAAAAAAAAAAAAAAAAAAAAAAAAAAAAAAAAAAAAAAAAAAAAAAAAAAAAAAAAAAAAAAAAAAAAAAAAAAAAAAAAAAAAAAAAAAAAAAAAAAAAAAAPZYQN/OMk77anCYTxNfUwVsbl05qSOpeGasWTAurbAIzvu3pTLTmkOtRMCPnCpbRk3kjYa9rb7eWO9B8Gb4VWzB8XE=</c2pa:manifest></metadata><rect x="-60" y="0" width="320" height="320" fill="#0d0d0d"/><polygon points="190,150 590,150 582,228" fill="#19C2A2" fill-opacity="0.14"/><polygon points="190,150 560,303 523,372" fill="#19C2A2" fill-opacity="0.14"/><polygon points="190,150 473,433 412,483" fill="#19C2A2" fill-opacity="0.14"/><polygon points="190,150 343,520 268,542" fill="#19C2A2" fill-opacity="0.14"/><polygon points="190,150 190,550 112,542" fill="#19C2A2" fill-opacity="0.14"/><polygon points="190,150 37,520 -32,483" fill="#19C2A2" fill-opacity="0.14"/><polygon points="190,150 -93,433 -143,372" fill="#19C2A2" fill-opacity="0.14"/><polygon points="190,150 -180,303 -202,228" fill="#19C2A2" fill-opacity="0.14"/><polygon points="190,150 -210,150 -202,72" fill="#19C2A2" fill-opacity="0.14"/><polygon points="190,150 -180,-3 -143,-72" fill="#19C2A2" fill-opacity="0.14"/><polygon points="190,150 -93,-133 -32,-183" fill="#19C2A2" fill-opacity="0.14"/><polygon points="190,150 37,-220 112,-242" fill="#19C2A2" fill-opacity="0.14"/><polygon points="190,150 190,-250 268,-242" fill="#19C2A2" fill-opacity="0.14"/><polygon points="190,150 343,-220 412,-183" fill="#19C2A2" fill-opacity="0.14"/><polygon points="190,150 473,-133 523,-72" fill="#19C2A2" fill-opacity="0.14"/><polygon points="190,150 560,-3 582,72" fill="#19C2A2" fill-opacity="0.14"/><circle cx="196" cy="150" r="40" fill="none" stroke="#19C2A2" stroke-width="6"/><circle cx="196" cy="150" r="8" fill="#FFD23F"/><line x1="136" y1="150" x2="170" y2="150" stroke="#fff" stroke-width="5" stroke-linecap="round"/><line x1="222" y1="150" x2="256" y2="150" stroke="#fff" stroke-width="5" stroke-linecap="round"/><line x1="196" y1="90" x2="196" y2="124" stroke="#fff" stroke-width="5" stroke-linecap="round"/><line x1="196" y1="176" x2="196" y2="210" stroke="#fff" stroke-width="5" stroke-linecap="round"/><g transform="translate(10 0) scale(1)"><g opacity="1"><path d="M68 230 Q48 240 52 258 Q56 270 66 264 Q72 256 62 252" fill="none" stroke="#111" stroke-width="11.2" stroke-linecap="round" stroke-linejoin="round"/><polyline points="70.0,164.0 56.0,176.0 54.0,156.0" fill="none" stroke="#111" stroke-width="12.2" stroke-linecap="round" stroke-linejoin="round"/><circle cx="54" cy="156" r="7.6" fill="#111"/><polyline points="72.0,188.0 58.0,196.0 54.0,214.0" fill="none" stroke="#111" stroke-width="12.2" stroke-linecap="round" stroke-linejoin="round"/><circle cx="54" cy="214" r="7.6" fill="#111"/><polyline points="74.0,234.0 64.0,256.0 68.0,284.0" fill="none" stroke="#111" stroke-width="12.2" stroke-linecap="round" stroke-linejoin="round"/><polyline points="68.0,284.0 58.0,286.0" fill="none" stroke="#111" stroke-width="10.2" stroke-linecap="round" stroke-linejoin="round"/><polygon points="66.0,204.0 92.0,204.0 96.0,220.0 88.0,236.0 70.0,236.0 64.0,220.0" fill="#111" stroke="#111" stroke-width="11.2" stroke-linejoin="round"/><polyline points="80.0,192.0 79.0,200.0" fill="none" stroke="#111" stroke-width="14.2" stroke-linecap="round" stroke-linejoin="round"/><polygon points="70.0,158.0 92.0,158.0 96.0,176.0 86.0,192.0 74.0,192.0 68.0,176.0" fill="#111" stroke="#111" stroke-width="11.2" stroke-linejoin="round"/><polyline points="86.0,234.0 96.0,256.0 92.0,284.0" fill="none" stroke="#111" stroke-width="13.2" stroke-linecap="round" stroke-linejoin="round"/><polyline points="92.0,284.0 104.0,286.0" fill="none" stroke="#111" stroke-width="10.2" stroke-linecap="round" stroke-linejoin="round"/><polyline points="92.0,164.0 106.0,176.0 108.0,156.0" fill="none" stroke="#111" stroke-width="13.2" stroke-linecap="round" stroke-linejoin="round"/><circle cx="108" cy="156" r="8.1" fill="#111"/><polyline points="90.0,188.0 104.0,196.0 108.0,214.0" fill="none" stroke="#111" stroke-width="13.2" stroke-linecap="round" stroke-linejoin="round"/><circle cx="108" cy="214" r="8.1" fill="#111"/><polygon points="68.0,148.0 63.0,134.0 67.0,120.0 74.0,102.0 84.0,114.0 96.0,123.0 109.0,131.0 107.0,141.0 94.0,148.0" fill="#111" stroke="#111" stroke-width="10.2" stroke-linejoin="round"/><path d="M68 230 Q48 240 52 258 Q56 270 66 264 Q72 256 62 252" fill="none" stroke="#fff" stroke-width="6" stroke-linecap="round" stroke-linejoin="round"/><polyline points="70.0,164.0 56.0,176.0 54.0,156.0" fill="none" stroke="#fff" stroke-width="7" stroke-linecap="round" stroke-linejoin="round"/><circle cx="54" cy="156" r="5.0" fill="#fff"/><polyline points="72.0,188.0 58.0,196.0 54.0,214.0" fill="none" stroke="#fff" stroke-width="7" stroke-linecap="round" stroke-linejoin="round"/><circle cx="54" cy="214" r="5.0" fill="#fff"/><polyline points="74.0,234.0 64.0,256.0 68.0,284.0" fill="none" stroke="#fff" stroke-width="7" stroke-linecap="round" stroke-linejoin="round"/><polyline points="68.0,284.0 58.0,286.0" fill="none" stroke="#fff" stroke-width="5" stroke-linecap="round" stroke-linejoin="round"/><polygon points="66.0,204.0 92.0,204.0 96.0,220.0 88.0,236.0 70.0,236.0 64.0,220.0" fill="#fff" stroke="#fff" stroke-width="6" stroke-linejoin="round"/><polyline points="80.0,192.0 79.0,200.0" fill="none" stroke="#fff" stroke-width="9" stroke-linecap="round" stroke-linejoin="round"/><polygon points="70.0,158.0 92.0,158.0 96.0,176.0 86.0,192.0 74.0,192.0 68.0,176.0" fill="#fff" stroke="#fff" stroke-width="6" stroke-linejoin="round"/><polyline points="86.0,234.0 96.0,256.0 92.0,284.0" fill="none" stroke="#fff" stroke-width="8" stroke-linecap="round" stroke-linejoin="round"/><polyline points="92.0,284.0 104.0,286.0" fill="none" stroke="#fff" stroke-width="5" stroke-linecap="round" stroke-linejoin="round"/><polyline points="92.0,164.0 106.0,176.0 108.0,156.0" fill="none" stroke="#fff" stroke-width="8" stroke-linecap="round" stroke-linejoin="round"/><circle cx="108" cy="156" r="5.5" fill="#fff"/><polyline points="90.0,188.0 104.0,196.0 108.0,214.0" fill="none" stroke="#fff" stroke-width="8" stroke-linecap="round" stroke-linejoin="round"/><circle cx="108" cy="214" r="5.5" fill="#fff"/><polygon points="68.0,148.0 63.0,134.0 67.0,120.0 74.0,102.0 84.0,114.0 96.0,123.0 109.0,131.0 107.0,141.0 94.0,148.0" fill="#fff" stroke="#fff" stroke-width="5" stroke-linejoin="round"/><g opacity="1"><circle cx="81" cy="117" r="8.1" fill="#111"/><circle cx="81" cy="117" r="5.5" fill="#fff"/><circle cx="78.6" cy="118.4" r="2.2" fill="#111"/></g><g opacity="1"><circle cx="87" cy="131" r="10.6" fill="#111"/><circle cx="87" cy="131" r="8.0" fill="#fff"/><circle cx="87" cy="131" r="4.6" fill="none" stroke="#111" stroke-width="1.4"/><circle cx="90.4" cy="130.3" r="2.6" fill="#111"/></g><path d="M107 139 q-10 6 -24 5" fill="none" stroke="#111" stroke-width="1.8" stroke-linecap="round"/><path d="M68 213 q12 4 24 0" fill="none" stroke="#111" stroke-width="1.6"/><path d="M68 220 q12 4 24 0" fill="none" stroke="#111" stroke-width="1.6"/><path d="M68 227 q12 4 24 0" fill="none" stroke="#111" stroke-width="1.6"/></g></g><line x1="100" y1="126" x2="156" y2="146" stroke="#FFD23F" stroke-width="3" stroke-dasharray="8 8"/></svg>
