<svg xmlns="http://www.w3.org/2000/svg" viewBox="-50 24 300 264" role="img" aria-label="Deflecting Block: Grankiki" xmlns:c2pa="http://c2pa.org/manifest"><metadata><c2pa:manifest>AAAWgmp1bWIAAAAeanVtZGMycGEAEQAQgAAAqgA4m3EDYzJwYQAAABZcanVtYgAAAEdqdW1kYzJtYQARABCAAACqADibcQN1cm46YzJwYToxZTFiMDA1YS05OTg1LTRhODUtODRmYi0yYzFkNGQ5ODc3OTUAAAADl2p1bWIAAAApanVtZGMyYXMAEQAQgAAAqgA4m3EDYzJwYS5hc3NlcnRpb25zAAAAALxqdW1iAAAARGp1bWRjYm9yABEAEIAAAKoAOJtxE2MycGEuaW5ncmVkaWVudC52MwAAAAAYYzJzaHHYdKvqpPDW9kci6GUw4vUAAABwY2JvcqNpZGM6Zm9ybWF0bWltYWdlL3N2Zyt4bWxqaW5zdGFuY2VJRHgseG1wOmlpZDowMTgzMGYyNS00YjRmLTRmYjYtYTZhYS1jYjI3MmY0Zjg0NzVscmVsYXRpb25zaGlwaHBhcmVudE9mAAAB4mp1bWIAAABBanVtZGNib3IAEQAQgAAAqgA4m3ETYzJwYS5hY3Rpb25zLnYyAAAAABhjMnNoRjV3/eXAFi2oJBrfsYFetwAAAZljYm9yomdhY3Rpb25zgqJmYWN0aW9ua2MycGEub3BlbmVkanBhcmFtZXRlcnOha2luZ3JlZGllbnRzgaJjdXJseC1zZWxmI2p1bWJmPWMycGEuYXNzZXJ0aW9ucy9jMnBhLmluZ3JlZGllbnQudjNkaGFzaFggaNPRG0Obrw3lPypV6e+lMcAZkHAxd43OTfVYbkYxcsSkZmFjdGlvbngdY29tLmFudGhyb3BpYy5jbGF1ZGUucHJvdmlkZWRqcGFyYW1ldGVyc6F4H2NvbS5hbnRocm9waWMub3JpZ2luLWNvbmZpZGVuY2VndW5rbm93bmtkZXNjcmlwdGlvbnhmQ2xhdWRlIHByb3ZpZGVkIHRoaXMgZmlsZSBhdCB0aGUgcmVxdWVzdCBvZiBhIHVzZXIgYW5kIG1heSBoYXZlIGNyZWF0ZWQgb3IgbW9kaWZpZWQgdGhlIGZpbGUgY29udGVudHMubXNvZnR3YXJlQWdlbnShZG5hbWVmQ2xhdWRlcmFsbEFjdGlvbnNJbmNsdWRlZPUAAADIanVtYgAAAEBqdW1kY2JvcgARABCAAACqADibcRNjMnBhLmhhc2guZGF0YQAAAAAYYzJzaO372LAnvjZ1xk28VqneutcAAACAY2JvcqVjYWxnZnNoYTI1NmNwYWRNAAAAAAAAAAAAAAAAAGRoYXNoWCDqAmezRAg++lm1pV11Ef1csfDVbfStbha3jPYByoexm2RuYW1lbmp1bWJmIG1hbmlmZXN0amV4Y2x1c2lvbnOBomVzdGFydBizZmxlbmd0aBkeBAAAAj5qdW1iAAAAJ2p1bWRjMmNsABEAEIAAAKoAOJtxA2MycGEuY2xhaW0udjIAAAACD2Nib3KlY2FsZ2ZzaGEyNTZpc2lnbmF0dXJleE1zZWxmI2p1bWJmPS9jMnBhL3VybjpjMnBhOjFlMWIwMDVhLTk5ODUtNGE4NS04NGZiLTJjMWQ0ZDk4Nzc5NS9jMnBhLnNpZ25hdHVyZWppbnN0YW5jZUlEeCx4bXA6aWlkOjBmN2VlMWE3LTY4ODItNDA5Yy05OTlhLWVmYzY1ZmQzNGZlOHJjcmVhdGVkX2Fzc2VydGlvbnODomN1cmx4LXNlbGYjanVtYmY9YzJwYS5hc3NlcnRpb25zL2MycGEuaW5ncmVkaWVudC52M2RoYXNoWCBo09EbQ5uvDeU/KlXp76UxwBmQcDF3jc5N9VhuRjFyxKJjdXJseCpzZWxmI2p1bWJmPWMycGEuYXNzZXJ0aW9ucy9jMnBhLmFjdGlvbnMudjJkaGFzaFggQiVXz5ccHRHR25JIOJixkd3MIA5iCkgFmST4pRRMVYGiY3VybHgpc2VsZiNqdW1iZj1jMnBhLmFzc2VydGlvbnMvYzJwYS5oYXNoLmRhdGFkaGFzaFgg8rPUCT1lVi4GvHYTsnV+e4NNfQ08VYcriHKwjEQRC/h0Y2xhaW1fZ2VuZXJhdG9yX2luZm+jZG5hbWVvQW50aHJvcGljIEZpbGVzZ3ZlcnNpb25lMS4wLjBrc3BlY1ZlcnNpb25lMi40LjAAABA4anVtYgAAAChqdW1kYzJjcwARABCAAACqADibcQNjMnBhLnNpZ25hdHVyZQAAABAIY2JvctKEWQISogEmGCFZAgowggIGMIIBjaADAgECAhRA5aAK7sI50L64g/oGQgU9Z1UTADAKBggqhkjOPQQDAzBJMRcwFQYDVQQKEw5BbnRocm9waWMsIFBCQzEuMCwGA1UEAxMlQW50aHJvcGljIENvbnRlbnQgQ3JlZGVudGlhbHMgUm9vdCBDQTAeFw0yNjA4MDcxODQzNTZaFw0yODA4MDYxOTQzNTZaMEQxFzAVBgNVBAoTDkFudGhyb3BpYywgUEJDMSkwJwYDVQQDEyBBbnRocm9waWMgQ2xhdWRlIENvbnRlbnQgU2lnbmluZzBZMBMGByqGSM49AgEGCCqGSM49AwEHA0IABJh6CmvLUBgFFNU0vUKlOVtE6djd17L5SuwX0LemFisBM3dkd/3cyjxFA3Qo5S46fX0/ihY0VZ7mfb9KF703t5OjWDBWMA4GA1UdDwEB/wQEAwIHgDAVBgNVHSUEDjAMBgorBgEEAYPoXgIBMAwGA1UdEwEB/wQCMAAwHwYDVR0jBBgwFoAUzlHiBIFOZFsj+OPEz5o+nMHXXMIwCgYIKoZIzj0EAwMDZwAwZAIwMXMdFJ4BetLLVY7ORuE9noqbbAZOZn/aArXyTwFAZfKrPzxF2vPoJNf1+UCdg1XGAjBwX1zd9WGqYkqmL5SFqw1QySjr1zJfpJM9+1rdDwSPLMOPOjKuiXjoU/pUUeG9RwmhY3BhZFkNngAAAAAAAAAAAAAAAAAAAAAAAAAAAAAAAAAAAAAAAAAAAAAAAAAAAAAAAAAAAAAAAAAAAAAAAAAAAAAAAAAAAAAAAAAAAAAAAAAAAAAAAAAAAAAAAAAAAAAAAAAAAAAAAAAAAAAAAAAAAAAAAAAAAAAAAAAAAAAAAAAAAAAAAAAAAAAAAAAAAAAAAAAAAAAAAAAAAAAAAAAAAAAAAAAAAAAAAAAAAAAAAAAAAAAAAAAAAAAAAAAAAAAAAAAAAAAAAAAAAAAAAAAAAAAAAAAAAAAAAAAAAAAAAAAAAAAAAAAAAAAAAAAAAAAAAAAAAAAAAAAAAAAAAAAAAAAAAAAAAAAAAAAAAAAAAAAAAAAAAAAAAAAAAAAAAAAAAAAAAAAAAAAAAAAAAAAAAAAAAAAAAAAAAAAAAAAAAAAAAAAAAAAAAAAAAAAAAAAAAAAAAAAAAAAAAAAAAAAAAAAAAAAAAAAAAAAAAAAAAAAAAAAAAAAAAAAAAAAAAAAAAAAAAAAAAAAAAAAAAAAAAAAAAAAAAAAAAAAAAAAAAAAAAAAAAAAAAAAAAAAAAAAAAAAAAAAAAAAAAAAAAAAAAAAAAAAAAAAAAAAAAAAAAAAAAAAAAAAAAAAAAAAAAAAAAAAAAAAAAAAAAAAAAAAAAAAAAAAAAAAAAAAAAAAAAAAAAAAAAAAAAAAAAAAAAAAAAAAAAAAAAAAAAAAAAAAAAAAAAAAAAAAAAAAAAAAAAAAAAAAAAAAAAAAAAAAAAAAAAAAAAAAAAAAAAAAAAAAAAAAAAAAAAAAAAAAAAAAAAAAAAAAAAAAAAAAAAAAAAAAAAAAAAAAAAAAAAAAAAAAAAAAAAAAAAAAAAAAAAAAAAAAAAAAAAAAAAAAAAAAAAAAAAAAAAAAAAAAAAAAAAAAAAAAAAAAAAAAAAAAAAAAAAAAAAAAAAAAAAAAAAAAAAAAAAAAAAAAAAAAAAAAAAAAAAAAAAAAAAAAAAAAAAAAAAAAAAAAAAAAAAAAAAAAAAAAAAAAAAAAAAAAAAAAAAAAAAAAAAAAAAAAAAAAAAAAAAAAAAAAAAAAAAAAAAAAAAAAAAAAAAAAAAAAAAAAAAAAAAAAAAAAAAAAAAAAAAAAAAAAAAAAAAAAAAAAAAAAAAAAAAAAAAAAAAAAAAAAAAAAAAAAAAAAAAAAAAAAAAAAAAAAAAAAAAAAAAAAAAAAAAAAAAAAAAAAAAAAAAAAAAAAAAAAAAAAAAAAAAAAAAAAAAAAAAAAAAAAAAAAAAAAAAAAAAAAAAAAAAAAAAAAAAAAAAAAAAAAAAAAAAAAAAAAAAAAAAAAAAAAAAAAAAAAAAAAAAAAAAAAAAAAAAAAAAAAAAAAAAAAAAAAAAAAAAAAAAAAAAAAAAAAAAAAAAAAAAAAAAAAAAAAAAAAAAAAAAAAAAAAAAAAAAAAAAAAAAAAAAAAAAAAAAAAAAAAAAAAAAAAAAAAAAAAAAAAAAAAAAAAAAAAAAAAAAAAAAAAAAAAAAAAAAAAAAAAAAAAAAAAAAAAAAAAAAAAAAAAAAAAAAAAAAAAAAAAAAAAAAAAAAAAAAAAAAAAAAAAAAAAAAAAAAAAAAAAAAAAAAAAAAAAAAAAAAAAAAAAAAAAAAAAAAAAAAAAAAAAAAAAAAAAAAAAAAAAAAAAAAAAAAAAAAAAAAAAAAAAAAAAAAAAAAAAAAAAAAAAAAAAAAAAAAAAAAAAAAAAAAAAAAAAAAAAAAAAAAAAAAAAAAAAAAAAAAAAAAAAAAAAAAAAAAAAAAAAAAAAAAAAAAAAAAAAAAAAAAAAAAAAAAAAAAAAAAAAAAAAAAAAAAAAAAAAAAAAAAAAAAAAAAAAAAAAAAAAAAAAAAAAAAAAAAAAAAAAAAAAAAAAAAAAAAAAAAAAAAAAAAAAAAAAAAAAAAAAAAAAAAAAAAAAAAAAAAAAAAAAAAAAAAAAAAAAAAAAAAAAAAAAAAAAAAAAAAAAAAAAAAAAAAAAAAAAAAAAAAAAAAAAAAAAAAAAAAAAAAAAAAAAAAAAAAAAAAAAAAAAAAAAAAAAAAAAAAAAAAAAAAAAAAAAAAAAAAAAAAAAAAAAAAAAAAAAAAAAAAAAAAAAAAAAAAAAAAAAAAAAAAAAAAAAAAAAAAAAAAAAAAAAAAAAAAAAAAAAAAAAAAAAAAAAAAAAAAAAAAAAAAAAAAAAAAAAAAAAAAAAAAAAAAAAAAAAAAAAAAAAAAAAAAAAAAAAAAAAAAAAAAAAAAAAAAAAAAAAAAAAAAAAAAAAAAAAAAAAAAAAAAAAAAAAAAAAAAAAAAAAAAAAAAAAAAAAAAAAAAAAAAAAAAAAAAAAAAAAAAAAAAAAAAAAAAAAAAAAAAAAAAAAAAAAAAAAAAAAAAAAAAAAAAAAAAAAAAAAAAAAAAAAAAAAAAAAAAAAAAAAAAAAAAAAAAAAAAAAAAAAAAAAAAAAAAAAAAAAAAAAAAAAAAAAAAAAAAAAAAAAAAAAAAAAAAAAAAAAAAAAAAAAAAAAAAAAAAAAAAAAAAAAAAAAAAAAAAAAAAAAAAAAAAAAAAAAAAAAAAAAAAAAAAAAAAAAAAAAAAAAAAAAAAAAAAAAAAAAAAAAAAAAAAAAAAAAAAAAAAAAAAAAAAAAAAAAAAAAAAAAAAAAAAAAAAAAAAAAAAAAAAAAAAAAAAAAAAAAAAAAAAAAAAAAAAAAAAAAAAAAAAAAAAAAAAAAAAAAAAAAAAAAAAAAAAAAAAAAAAAAAAAAAAAAAAAAAAAAAAAAAAAAAAAAAAAAAAAAAAAAAAAAAAAAAAAAAAAAAAAAAAAAAAAAAAAAAAAAAAAAAAAAAAAAAAAAAAAAAAAAAAAAAAAAAAAAAAAAAAAAAAAAAAAAAAAAAAAAAAAAAAAAAAAAAAAAAAAAAAAAAAAAAAAAAAAAAAAAAAAAAAAAAAAAAAAAAAAAAAAAAAAAAAAAAAAAAAAAAAAAAAAAAAAAAAAAAAAAAAAAAAAAAAAAAAAAAAAAAAAAAAAAAAAAAAAAAAAAAAAAAAAAAAAAAAAAAAAAAAAAAAAAAAAAAAAAAAAAAAAAAAAAAAAAAAAAAAAAAAAAAAAAAAAAAAAAAAAAAAAAAAAAAAAAAAAAAAAAAAAAAAAAAAAAAAAAAAAAAAAAAAAAAAAAAAAAAAAAAAAAAAAAAAAAAAAAAAAAAAAAAAAAAAAAAAAAAAAAAAAAAAAAAAAAAAAAAAAAAAAAAAAAAAAAAAAAAAAAAAAAAAAAAAAAAAAAAAAAAAAAAAAAAAAAAAAAAAAAAAAAAAAAAAAAAAAAAAAAAAAAAAAAAAAAAAAAAAAAAAAAAAAAAAAAAAAAAAAAAAAAAAAAAAAAAAAAAAAAAAAAAAAAAAAAAAAAAAAAAAAAAAAAAAAAAAAAAAAAAAAAAAAAAAAAAAAAAAAAAAAAAAAAAAAAAAAAAAAAAAAAAAAAAAAAAAAAAAAAAAAAAAAAAAAAAAAAAAAAAAAAAAAAAAAAAAAAAAAAAAAAAAAAAAAAAAAAAAAAAAAAAAAAAAAAAAAAAAAAAAAAAAAAAAAAAAAAAAAAAAAAAAAAAAAAAAAAAAAAAAAAAAAAAAAAAAAAAAAAAAAAAAAAAAAAAAAAAAAAAAAAAAAAAAAAAAAAAAAAAAAAAAAAAAAAAAAAAAAAAAAAAAAAAAAAAAAAAAAAAAAAAAAAAAAAAAAAAAAAAAAAAAAAAAAAAAAAAAAAAAAAAAAAAAAAAAAAAAAAAAAAAAAAAAAAAAAAAAAAAAAAAAAAAAAAAAAAAAAAAAAAAAAAAAAAAAAAAAAAAAAAAAAAAAAAAAAAAAAAAAAAAAAAAAAAAAAAAAAAAAAAAAAAAAAAAAAAAAAAAAAAAAAAAAAAAAAAAAAAAAAAAAAAAAAAAAAAAAAAAAAAAAAAAAAAAAAAAAAAAAAAAAAAAAAAAAAAAAAAAAAAAAAAAAAAAAAAAAAAAAAAAAAAAAAAAAAAAAAAAAAAAAAAAAAAAAAAAAAAAAAAAAAAAAAAAAAAAAAAAAAAAAAAAAAAAAAAAAAAAAAAAAAAAAAAAAAAAAAAAAAAAAAAAAAAAAAAAAAAAAAAAAAAAAAAAAAAAAAAAAAAAAAAAAAAAAAAAAAAAAAAAAAAAAAAAAAAAAAAAAAAAAAAAAAAAAAAAAAAAAAAAAAAAAAAAAAAAAAAAAAAAAAAAAAAAAAAAAAAAAAAAAAAAAAAAAAAAAAAAAAAAAAAAAAAAAAAAAAAAAAAAAAAAAAAAAAAAAAAAAAAAAAAAAAAAAAAAAAAAAAAAAAAAAAAAAAAAAAAAAAAAAAAAAAAAAAAAAAAAAAAAAAAAAAAAAAAAAAAAAAAAAAAAAAAAAAAAAAAAAAAAAAAAAAAAAAAAAAAAAAAAAAAAAAAAAAAAAAAAAAAAAAAAAAAAAAAAAAAAAAAAAAAAAAAAAAAAAAAAAAAAAAAAAAAAAAAAAAAAAAAAAAAAAAAAAAAAAAAAAAAAAAAAAAAAAAAAAAAAAAAAAAAAAAAAAAAAAAAAAAAAAAAAAAAAAAAAAAAAAAAAAAAAAAAAAAAAAAAAAAAAAAAAAAAAAAAAAAAAAAAAAAAAAAAAAAAAAAAAAAAAAAAAAAAAAAAAAAAAAAAAAAAAAAAAAAAAAAAAAAAAAAAAAAAAAPZYQNuWA4pfMATc/UXNeQbpqU3GmJAvQU5PBelIk13LJ16YkCqBesBVMZ/+OabbwFYQAt9ss8UAcy5HjGNK3jHEOhg=</c2pa:manifest></metadata><rect x="-60" y="0" width="320" height="320" fill="#0d0d0d"/><polygon points="186,160 586,160 578,238" fill="#4a93dd" fill-opacity="0.16"/><polygon points="186,160 556,313 519,382" fill="#4a93dd" fill-opacity="0.16"/><polygon points="186,160 469,443 408,493" fill="#4a93dd" fill-opacity="0.16"/><polygon points="186,160 339,530 264,552" fill="#4a93dd" fill-opacity="0.16"/><polygon points="186,160 186,560 108,552" fill="#4a93dd" fill-opacity="0.16"/><polygon points="186,160 33,530 -36,493" fill="#4a93dd" fill-opacity="0.16"/><polygon points="186,160 -97,443 -147,382" fill="#4a93dd" fill-opacity="0.16"/><polygon points="186,160 -184,313 -206,238" fill="#4a93dd" fill-opacity="0.16"/><polygon points="186,160 -214,160 -206,82" fill="#4a93dd" fill-opacity="0.16"/><polygon points="186,160 -184,7 -147,-62" fill="#4a93dd" fill-opacity="0.16"/><polygon points="186,160 -97,-123 -36,-173" fill="#4a93dd" fill-opacity="0.16"/><polygon points="186,160 33,-210 108,-232" fill="#4a93dd" fill-opacity="0.16"/><polygon points="186,160 186,-240 264,-232" fill="#4a93dd" fill-opacity="0.16"/><polygon points="186,160 339,-210 408,-173" fill="#4a93dd" fill-opacity="0.16"/><polygon points="186,160 469,-123 519,-62" fill="#4a93dd" fill-opacity="0.16"/><polygon points="186,160 556,7 578,82" fill="#4a93dd" fill-opacity="0.16"/><path d="M176 60 Q212 170.0 176 280" fill="none" stroke="#fff" stroke-width="12" stroke-linecap="round"/><path d="M176 60 Q212 170.0 176 280" fill="none" stroke="#4a93dd" stroke-width="6" stroke-linecap="round"/><g opacity="1"><path d="M72 236 Q50 244 52 262 Q56 274 66 268 Q72 260 62 256" fill="none" stroke="#111" stroke-width="11.2" stroke-linecap="round" stroke-linejoin="round"/><polyline points="96.0,184.0 116.0,166.0 124.0,146.0" fill="none" stroke="#111" stroke-width="12.2" stroke-linecap="round" stroke-linejoin="round"/><circle cx="124" cy="146" r="7.6" fill="#111"/><polyline points="94.0,202.0 112.0,214.0 126.0,210.0" fill="none" stroke="#111" stroke-width="12.2" stroke-linecap="round" stroke-linejoin="round"/><circle cx="126" cy="210" r="7.6" fill="#111"/><polyline points="80.0,240.0 60.0,256.0 64.0,284.0" fill="none" stroke="#111" stroke-width="12.2" stroke-linecap="round" stroke-linejoin="round"/><polyline points="64.0,284.0 54.0,286.0" fill="none" stroke="#111" stroke-width="10.2" stroke-linecap="round" stroke-linejoin="round"/><polygon points="76.0,214.0 100.0,212.0 104.0,228.0 94.0,244.0 76.0,244.0 70.0,228.0" fill="#111" stroke="#111" stroke-width="11.2" stroke-linejoin="round"/><polyline points="98.0,206.0 94.0,214.0" fill="none" stroke="#111" stroke-width="14.2" stroke-linecap="round" stroke-linejoin="round"/><polygon points="92.0,176.0 114.0,176.0 118.0,194.0 106.0,208.0 94.0,206.0 88.0,192.0" fill="#111" stroke="#111" stroke-width="11.2" stroke-linejoin="round"/><polyline points="98.0,240.0 120.0,256.0 116.0,284.0" fill="none" stroke="#111" stroke-width="13.2" stroke-linecap="round" stroke-linejoin="round"/><polyline points="116.0,284.0 128.0,286.0" fill="none" stroke="#111" stroke-width="10.2" stroke-linecap="round" stroke-linejoin="round"/><polyline points="112.0,184.0 132.0,176.0 138.0,152.0" fill="none" stroke="#111" stroke-width="13.2" stroke-linecap="round" stroke-linejoin="round"/><circle cx="138" cy="152" r="8.1" fill="#111"/><polyline points="110.0,200.0 130.0,206.0 142.0,196.0" fill="none" stroke="#111" stroke-width="13.2" stroke-linecap="round" stroke-linejoin="round"/><circle cx="142" cy="196" r="8.1" fill="#111"/><polygon points="100.0,174.0 95.0,160.0 99.0,146.0 106.0,128.0 116.0,140.0 128.0,149.0 141.0,157.0 139.0,167.0 126.0,174.0" fill="#111" stroke="#111" stroke-width="10.2" stroke-linejoin="round"/><path d="M72 236 Q50 244 52 262 Q56 274 66 268 Q72 260 62 256" fill="none" stroke="#fff" stroke-width="6" stroke-linecap="round" stroke-linejoin="round"/><polyline points="96.0,184.0 116.0,166.0 124.0,146.0" fill="none" stroke="#fff" stroke-width="7" stroke-linecap="round" stroke-linejoin="round"/><circle cx="124" cy="146" r="5.0" fill="#fff"/><polyline points="94.0,202.0 112.0,214.0 126.0,210.0" fill="none" stroke="#fff" stroke-width="7" stroke-linecap="round" stroke-linejoin="round"/><circle cx="126" cy="210" r="5.0" fill="#fff"/><polyline points="80.0,240.0 60.0,256.0 64.0,284.0" fill="none" stroke="#fff" stroke-width="7" stroke-linecap="round" stroke-linejoin="round"/><polyline points="64.0,284.0 54.0,286.0" fill="none" stroke="#fff" stroke-width="5" stroke-linecap="round" stroke-linejoin="round"/><polygon points="76.0,214.0 100.0,212.0 104.0,228.0 94.0,244.0 76.0,244.0 70.0,228.0" fill="#fff" stroke="#fff" stroke-width="6" stroke-linejoin="round"/><polyline points="98.0,206.0 94.0,214.0" fill="none" stroke="#fff" stroke-width="9" stroke-linecap="round" stroke-linejoin="round"/><polygon points="92.0,176.0 114.0,176.0 118.0,194.0 106.0,208.0 94.0,206.0 88.0,192.0" fill="#fff" stroke="#fff" stroke-width="6" stroke-linejoin="round"/><polyline points="98.0,240.0 120.0,256.0 116.0,284.0" fill="none" stroke="#fff" stroke-width="8" stroke-linecap="round" stroke-linejoin="round"/><polyline points="116.0,284.0 128.0,286.0" fill="none" stroke="#fff" stroke-width="5" stroke-linecap="round" stroke-linejoin="round"/><polyline points="112.0,184.0 132.0,176.0 138.0,152.0" fill="none" stroke="#fff" stroke-width="8" stroke-linecap="round" stroke-linejoin="round"/><circle cx="138" cy="152" r="5.5" fill="#fff"/><polyline points="110.0,200.0 130.0,206.0 142.0,196.0" fill="none" stroke="#fff" stroke-width="8" stroke-linecap="round" stroke-linejoin="round"/><circle cx="142" cy="196" r="5.5" fill="#fff"/><polygon points="100.0,174.0 95.0,160.0 99.0,146.0 106.0,128.0 116.0,140.0 128.0,149.0 141.0,157.0 139.0,167.0 126.0,174.0" fill="#fff" stroke="#fff" stroke-width="5" stroke-linejoin="round"/><g opacity="1"><circle cx="113" cy="143" r="8.1" fill="#111"/><circle cx="113" cy="143" r="5.5" fill="#fff"/><circle cx="110.6" cy="144.9" r="2.2" fill="#111"/></g><g opacity="1"><circle cx="119" cy="157" r="10.6" fill="#111"/><circle cx="119" cy="157" r="8.0" fill="#fff"/><circle cx="119" cy="157" r="4.6" fill="none" stroke="#111" stroke-width="1.4"/><circle cx="122.4" cy="157.0" r="2.6" fill="#111"/></g><path d="M139 165 q-10 6 -24 5" fill="none" stroke="#111" stroke-width="1.8" stroke-linecap="round"/><path d="M76 222 q12 4 24 0" fill="none" stroke="#111" stroke-width="1.6"/><path d="M76 229 q12 4 24 0" fill="none" stroke="#111" stroke-width="1.6"/><path d="M76 236 q12 4 24 0" fill="none" stroke="#111" stroke-width="1.6"/></g><polygon points="218.1,154.5 202.2,153.3 208.9,162.5 199.4,156.1 201.1,171.9 195.6,157.0 189.9,167.0 191.9,155.7 178.2,163.7 189.5,152.5 178.1,151.5 189.1,148.6 176.1,139.5 191.0,145.1 187.2,134.3 194.4,143.2 197.3,127.5 198.4,143.4 206.6,135.4 201.5,145.7 217.0,141.8 203.0,149.4" fill="#FFD23F" stroke="#FF5A1F" stroke-width="2" stroke-linejoin="round"/><line x1="206" y1="140" x2="246" y2="104" stroke="#FFD23F" stroke-width="5" stroke-linecap="round"/><line x1="212" y1="136" x2="252" y2="88" stroke="#FFD23F" stroke-width="5" stroke-linecap="round"/><line x1="218" y1="132" x2="258" y2="72" stroke="#FFD23F" stroke-width="5" stroke-linecap="round"/></svg>
