<svg xmlns="http://www.w3.org/2000/svg" viewBox="-50 24 300 264" role="img" aria-label="Devastating Blow: Bouaux" xmlns:c2pa="http://c2pa.org/manifest"><metadata><c2pa:manifest>AAAWgmp1bWIAAAAeanVtZGMycGEAEQAQgAAAqgA4m3EDYzJwYQAAABZcanVtYgAAAEdqdW1kYzJtYQARABCAAACqADibcQN1cm46YzJwYTo0YzEzNzEzYi0yNGYyLTRkZmEtODI4Yy1lMzUzOGI0MTNhNzcAAAADl2p1bWIAAAApanVtZGMyYXMAEQAQgAAAqgA4m3EDYzJwYS5hc3NlcnRpb25zAAAAALxqdW1iAAAARGp1bWRjYm9yABEAEIAAAKoAOJtxE2MycGEuaW5ncmVkaWVudC52MwAAAAAYYzJzaAEXYCCjOhJHShaLKEaWjgcAAABwY2JvcqNpZGM6Zm9ybWF0bWltYWdlL3N2Zyt4bWxqaW5zdGFuY2VJRHgseG1wOmlpZDozZTIxNWY5Yy1kOTZkLTRiNmYtOWZmMy04MGExNGM3MGExM2RscmVsYXRpb25zaGlwaHBhcmVudE9mAAAB4mp1bWIAAABBanVtZGNib3IAEQAQgAAAqgA4m3ETYzJwYS5hY3Rpb25zLnYyAAAAABhjMnNoRlw2uIPzRa+WlWJplYNajAAAAZljYm9yomdhY3Rpb25zgqJmYWN0aW9ua2MycGEub3BlbmVkanBhcmFtZXRlcnOha2luZ3JlZGllbnRzgaJjdXJseC1zZWxmI2p1bWJmPWMycGEuYXNzZXJ0aW9ucy9jMnBhLmluZ3JlZGllbnQudjNkaGFzaFggzGpC7yANKbX5URyzcUtNl3P/rzn5UDncE/AI+gk8eTakZmFjdGlvbngdY29tLmFudGhyb3BpYy5jbGF1ZGUucHJvdmlkZWRqcGFyYW1ldGVyc6F4H2NvbS5hbnRocm9waWMub3JpZ2luLWNvbmZpZGVuY2VndW5rbm93bmtkZXNjcmlwdGlvbnhmQ2xhdWRlIHByb3ZpZGVkIHRoaXMgZmlsZSBhdCB0aGUgcmVxdWVzdCBvZiBhIHVzZXIgYW5kIG1heSBoYXZlIGNyZWF0ZWQgb3IgbW9kaWZpZWQgdGhlIGZpbGUgY29udGVudHMubXNvZnR3YXJlQWdlbnShZG5hbWVmQ2xhdWRlcmFsbEFjdGlvbnNJbmNsdWRlZPUAAADIanVtYgAAAEBqdW1kY2JvcgARABCAAACqADibcRNjMnBhLmhhc2guZGF0YQAAAAAYYzJzaObR8k/xyRaE1tM47Btv790AAACAY2JvcqVjYWxnZnNoYTI1NmNwYWRNAAAAAAAAAAAAAAAAAGRoYXNoWCAnnoRm3MSE+xNic8QuEUTn9BKqB07pw7HYZbuGu5uRKmRuYW1lbmp1bWJmIG1hbmlmZXN0amV4Y2x1c2lvbnOBomVzdGFydBixZmxlbmd0aBkeBAAAAj5qdW1iAAAAJ2p1bWRjMmNsABEAEIAAAKoAOJtxA2MycGEuY2xhaW0udjIAAAACD2Nib3KlY2FsZ2ZzaGEyNTZpc2lnbmF0dXJleE1zZWxmI2p1bWJmPS9jMnBhL3VybjpjMnBhOjRjMTM3MTNiLTI0ZjItNGRmYS04MjhjLWUzNTM4YjQxM2E3Ny9jMnBhLnNpZ25hdHVyZWppbnN0YW5jZUlEeCx4bXA6aWlkOjI3Nzg3Y2NhLWQ0ZTktNGE0OS04ZTRiLTk2YWRlNmVkOTkzZXJjcmVhdGVkX2Fzc2VydGlvbnODomN1cmx4LXNlbGYjanVtYmY9YzJwYS5hc3NlcnRpb25zL2MycGEuaW5ncmVkaWVudC52M2RoYXNoWCDMakLvIA0ptflRHLNxS02Xc/+vOflQOdwT8Aj6CTx5NqJjdXJseCpzZWxmI2p1bWJmPWMycGEuYXNzZXJ0aW9ucy9jMnBhLmFjdGlvbnMudjJkaGFzaFggNuX+0vmmXG8d+RVRA11lOwJSAjdntNcmBgp/sv9XfsqiY3VybHgpc2VsZiNqdW1iZj1jMnBhLmFzc2VydGlvbnMvYzJwYS5oYXNoLmRhdGFkaGFzaFgggsetTLX+ORkzg6aGrUT6/NoMmfgjMaoNOlVooXPf9bN0Y2xhaW1fZ2VuZXJhdG9yX2luZm+jZG5hbWVvQW50aHJvcGljIEZpbGVzZ3ZlcnNpb25lMS4wLjBrc3BlY1ZlcnNpb25lMi40LjAAABA4anVtYgAAAChqdW1kYzJjcwARABCAAACqADibcQNjMnBhLnNpZ25hdHVyZQAAABAIY2JvctKEWQISogEmGCFZAgowggIGMIIBjaADAgECAhRA5aAK7sI50L64g/oGQgU9Z1UTADAKBggqhkjOPQQDAzBJMRcwFQYDVQQKEw5BbnRocm9waWMsIFBCQzEuMCwGA1UEAxMlQW50aHJvcGljIENvbnRlbnQgQ3JlZGVudGlhbHMgUm9vdCBDQTAeFw0yNjA4MDcxODQzNTZaFw0yODA4MDYxOTQzNTZaMEQxFzAVBgNVBAoTDkFudGhyb3BpYywgUEJDMSkwJwYDVQQDEyBBbnRocm9waWMgQ2xhdWRlIENvbnRlbnQgU2lnbmluZzBZMBMGByqGSM49AgEGCCqGSM49AwEHA0IABJh6CmvLUBgFFNU0vUKlOVtE6djd17L5SuwX0LemFisBM3dkd/3cyjxFA3Qo5S46fX0/ihY0VZ7mfb9KF703t5OjWDBWMA4GA1UdDwEB/wQEAwIHgDAVBgNVHSUEDjAMBgorBgEEAYPoXgIBMAwGA1UdEwEB/wQCMAAwHwYDVR0jBBgwFoAUzlHiBIFOZFsj+OPEz5o+nMHXXMIwCgYIKoZIzj0EAwMDZwAwZAIwMXMdFJ4BetLLVY7ORuE9noqbbAZOZn/aArXyTwFAZfKrPzxF2vPoJNf1+UCdg1XGAjBwX1zd9WGqYkqmL5SFqw1QySjr1zJfpJM9+1rdDwSPLMOPOjKuiXjoU/pUUeG9RwmhY3BhZFkNngAAAAAAAAAAAAAAAAAAAAAAAAAAAAAAAAAAAAAAAAAAAAAAAAAAAAAAAAAAAAAAAAAAAAAAAAAAAAAAAAAAAAAAAAAAAAAAAAAAAAAAAAAAAAAAAAAAAAAAAAAAAAAAAAAAAAAAAAAAAAAAAAAAAAAAAAAAAAAAAAAAAAAAAAAAAAAAAAAAAAAAAAAAAAAAAAAAAAAAAAAAAAAAAAAAAAAAAAAAAAAAAAAAAAAAAAAAAAAAAAAAAAAAAAAAAAAAAAAAAAAAAAAAAAAAAAAAAAAAAAAAAAAAAAAAAAAAAAAAAAAAAAAAAAAAAAAAAAAAAAAAAAAAAAAAAAAAAAAAAAAAAAAAAAAAAAAAAAAAAAAAAAAAAAAAAAAAAAAAAAAAAAAAAAAAAAAAAAAAAAAAAAAAAAAAAAAAAAAAAAAAAAAAAAAAAAAAAAAAAAAAAAAAAAAAAAAAAAAAAAAAAAAAAAAAAAAAAAAAAAAAAAAAAAAAAAAAAAAAAAAAAAAAAAAAAAAAAAAAAAAAAAAAAAAAAAAAAAAAAAAAAAAAAAAAAAAAAAAAAAAAAAAAAAAAAAAAAAAAAAAAAAAAAAAAAAAAAAAAAAAAAAAAAAAAAAAAAAAAAAAAAAAAAAAAAAAAAAAAAAAAAAAAAAAAAAAAAAAAAAAAAAAAAAAAAAAAAAAAAAAAAAAAAAAAAAAAAAAAAAAAAAAAAAAAAAAAAAAAAAAAAAAAAAAAAAAAAAAAAAAAAAAAAAAAAAAAAAAAAAAAAAAAAAAAAAAAAAAAAAAAAAAAAAAAAAAAAAAAAAAAAAAAAAAAAAAAAAAAAAAAAAAAAAAAAAAAAAAAAAAAAAAAAAAAAAAAAAAAAAAAAAAAAAAAAAAAAAAAAAAAAAAAAAAAAAAAAAAAAAAAAAAAAAAAAAAAAAAAAAAAAAAAAAAAAAAAAAAAAAAAAAAAAAAAAAAAAAAAAAAAAAAAAAAAAAAAAAAAAAAAAAAAAAAAAAAAAAAAAAAAAAAAAAAAAAAAAAAAAAAAAAAAAAAAAAAAAAAAAAAAAAAAAAAAAAAAAAAAAAAAAAAAAAAAAAAAAAAAAAAAAAAAAAAAAAAAAAAAAAAAAAAAAAAAAAAAAAAAAAAAAAAAAAAAAAAAAAAAAAAAAAAAAAAAAAAAAAAAAAAAAAAAAAAAAAAAAAAAAAAAAAAAAAAAAAAAAAAAAAAAAAAAAAAAAAAAAAAAAAAAAAAAAAAAAAAAAAAAAAAAAAAAAAAAAAAAAAAAAAAAAAAAAAAAAAAAAAAAAAAAAAAAAAAAAAAAAAAAAAAAAAAAAAAAAAAAAAAAAAAAAAAAAAAAAAAAAAAAAAAAAAAAAAAAAAAAAAAAAAAAAAAAAAAAAAAAAAAAAAAAAAAAAAAAAAAAAAAAAAAAAAAAAAAAAAAAAAAAAAAAAAAAAAAAAAAAAAAAAAAAAAAAAAAAAAAAAAAAAAAAAAAAAAAAAAAAAAAAAAAAAAAAAAAAAAAAAAAAAAAAAAAAAAAAAAAAAAAAAAAAAAAAAAAAAAAAAAAAAAAAAAAAAAAAAAAAAAAAAAAAAAAAAAAAAAAAAAAAAAAAAAAAAAAAAAAAAAAAAAAAAAAAAAAAAAAAAAAAAAAAAAAAAAAAAAAAAAAAAAAAAAAAAAAAAAAAAAAAAAAAAAAAAAAAAAAAAAAAAAAAAAAAAAAAAAAAAAAAAAAAAAAAAAAAAAAAAAAAAAAAAAAAAAAAAAAAAAAAAAAAAAAAAAAAAAAAAAAAAAAAAAAAAAAAAAAAAAAAAAAAAAAAAAAAAAAAAAAAAAAAAAAAAAAAAAAAAAAAAAAAAAAAAAAAAAAAAAAAAAAAAAAAAAAAAAAAAAAAAAAAAAAAAAAAAAAAAAAAAAAAAAAAAAAAAAAAAAAAAAAAAAAAAAAAAAAAAAAAAAAAAAAAAAAAAAAAAAAAAAAAAAAAAAAAAAAAAAAAAAAAAAAAAAAAAAAAAAAAAAAAAAAAAAAAAAAAAAAAAAAAAAAAAAAAAAAAAAAAAAAAAAAAAAAAAAAAAAAAAAAAAAAAAAAAAAAAAAAAAAAAAAAAAAAAAAAAAAAAAAAAAAAAAAAAAAAAAAAAAAAAAAAAAAAAAAAAAAAAAAAAAAAAAAAAAAAAAAAAAAAAAAAAAAAAAAAAAAAAAAAAAAAAAAAAAAAAAAAAAAAAAAAAAAAAAAAAAAAAAAAAAAAAAAAAAAAAAAAAAAAAAAAAAAAAAAAAAAAAAAAAAAAAAAAAAAAAAAAAAAAAAAAAAAAAAAAAAAAAAAAAAAAAAAAAAAAAAAAAAAAAAAAAAAAAAAAAAAAAAAAAAAAAAAAAAAAAAAAAAAAAAAAAAAAAAAAAAAAAAAAAAAAAAAAAAAAAAAAAAAAAAAAAAAAAAAAAAAAAAAAAAAAAAAAAAAAAAAAAAAAAAAAAAAAAAAAAAAAAAAAAAAAAAAAAAAAAAAAAAAAAAAAAAAAAAAAAAAAAAAAAAAAAAAAAAAAAAAAAAAAAAAAAAAAAAAAAAAAAAAAAAAAAAAAAAAAAAAAAAAAAAAAAAAAAAAAAAAAAAAAAAAAAAAAAAAAAAAAAAAAAAAAAAAAAAAAAAAAAAAAAAAAAAAAAAAAAAAAAAAAAAAAAAAAAAAAAAAAAAAAAAAAAAAAAAAAAAAAAAAAAAAAAAAAAAAAAAAAAAAAAAAAAAAAAAAAAAAAAAAAAAAAAAAAAAAAAAAAAAAAAAAAAAAAAAAAAAAAAAAAAAAAAAAAAAAAAAAAAAAAAAAAAAAAAAAAAAAAAAAAAAAAAAAAAAAAAAAAAAAAAAAAAAAAAAAAAAAAAAAAAAAAAAAAAAAAAAAAAAAAAAAAAAAAAAAAAAAAAAAAAAAAAAAAAAAAAAAAAAAAAAAAAAAAAAAAAAAAAAAAAAAAAAAAAAAAAAAAAAAAAAAAAAAAAAAAAAAAAAAAAAAAAAAAAAAAAAAAAAAAAAAAAAAAAAAAAAAAAAAAAAAAAAAAAAAAAAAAAAAAAAAAAAAAAAAAAAAAAAAAAAAAAAAAAAAAAAAAAAAAAAAAAAAAAAAAAAAAAAAAAAAAAAAAAAAAAAAAAAAAAAAAAAAAAAAAAAAAAAAAAAAAAAAAAAAAAAAAAAAAAAAAAAAAAAAAAAAAAAAAAAAAAAAAAAAAAAAAAAAAAAAAAAAAAAAAAAAAAAAAAAAAAAAAAAAAAAAAAAAAAAAAAAAAAAAAAAAAAAAAAAAAAAAAAAAAAAAAAAAAAAAAAAAAAAAAAAAAAAAAAAAAAAAAAAAAAAAAAAAAAAAAAAAAAAAAAAAAAAAAAAAAAAAAAAAAAAAAAAAAAAAAAAAAAAAAAAAAAAAAAAAAAAAAAAAAAAAAAAAAAAAAAAAAAAAAAAAAAAAAAAAAAAAAAAAAAAAAAAAAAAAAAAAAAAAAAAAAAAAAAAAAAAAAAAAAAAAAAAAAAAAAAAAAAAAAAAAAAAAAAAAAAAAAAAAAAAAAAAAAAAAAAAAAAAAAAAAAAAAAAAAAAAAAAAAAAAAAAAAAAAAAAAAAAAAAAAAAAAAAAAAAAAAAAAAAAAAAAAAAAAAAAAAAAAAAAAAAAAAAAAAAAAAAAAAAAAAAAAAAAAAAAAAAAAAAAAAAAAAAAAAAAAAAAAAAAAAAAAAAAAAAAAAAAAAAAAAAAAAAAAAAAAAAAAAAAAAAAAAAAAAAAAAAAAAAAAAAAAAAAAAAAAAAAAAAAAAAAAAAAAAAAAAAAAAAAAAAAAAAAAAAAAAAAAAAAAAAAAAAAAAAAAAAAAAAAAAAAAAAAAAAAAAAAAAAAAAAAAAAAAAAAAAAAAAAAAAAAAAAAAAAAAAAAAAAAAAAAAAAAAAAAAAAAAAAAAAAAAAAAAAAAAAAAAAAAAAAAAAAAAAAAAAAAAAAAAAAAAAAAAAAAAAAAAAAAAAAAAAAAAAAAAAAAAAAAAAAAAAAAAAAAAAAAAAAAAAAAAAAAAAAAAAAAAAAAAAAAAAAAAAAAAAAAAAAAAAAAAAAAAAAAAAAAAAAAAAAAAAAAAAAAAAAAAAAAAAAAAAAAAAAAAAAAAAAAAAAAAAAAAAAAAAAAAAAAAAAAAAAAAAAAAAAAAAAAAAAAAAAAAAAAAAAAAAAAAAAAAAAAAAAAAAAAAAAAAAAAAAAAAAAAAAAAAAAAAAAAAAAAAAAAAAAAAAAAAAAAAAAAAAAAAAAAAAAAAAAAAAAAAAAAAAAAAAAAAAAAAAAAAAAAAAAAAAAAAAAAAAAAAAAAAAAAAAAAAAAAAAAAAAAAAAAAAAAAAAAAAAAAAAAAAAAAAAAAAAAAAAAAAAAAAAAAAAAAAAAAAAAAAAAAAAAAAAAAAAAAAAAAAAAAAAAAAAAAAAAAAAAAAAAAAAAAAAAAAAAAAAAAAAAAAAAAAAAAAAAAAAAAAAAAAAAAAAAAAAAAAAAAAAAAAAAAAAAAAAAAAAAAAAAAAAAAAAAAAAAAAAAAAAAAAAAAAAAAAAAAAAAAAAAAAAAAAAAAAAAAAAAAAAAAAAAAAAAAAAAAAAAAAAAAAAAAAAAAAAAAAAAAAAAAAAAAAAAAAAAAAAAAAAAAAAAAAAAAAAAAAAAAAAAAAAAAAAAAAAAAAAAAAAAAAAAAAAAAAAAAAAAAAAAAAAAAAAAAAAAAAAAAAAAAAPZYQC9wxooymlUJdrowfx/K4DcNZHRlgxTMtA0QiovCgn7nQv8XJfs3uQMHK4vJGF15FB0pfDNaxAkC9zcKntAChsc=</c2pa:manifest></metadata><rect x="-60" y="0" width="320" height="320" fill="#0d0d0d"/><polygon points="100,60 500,60 494,129" fill="#fdcb6e" fill-opacity="0.2"/><polygon points="100,60 476,197 446,260" fill="#fdcb6e" fill-opacity="0.2"/><polygon points="100,60 406,317 357,366" fill="#fdcb6e" fill-opacity="0.2"/><polygon points="100,60 300,406 237,436" fill="#fdcb6e" fill-opacity="0.2"/><polygon points="100,60 169,454 100,460" fill="#fdcb6e" fill-opacity="0.2"/><polygon points="100,60 31,454 -37,436" fill="#fdcb6e" fill-opacity="0.2"/><polygon points="100,60 -100,406 -157,366" fill="#fdcb6e" fill-opacity="0.2"/><polygon points="100,60 -206,317 -246,260" fill="#fdcb6e" fill-opacity="0.2"/><polygon points="100,60 -276,197 -294,129" fill="#fdcb6e" fill-opacity="0.2"/><polygon points="100,60 -300,60 -294,-9" fill="#fdcb6e" fill-opacity="0.2"/><polygon points="100,60 -276,-77 -246,-140" fill="#fdcb6e" fill-opacity="0.2"/><polygon points="100,60 -206,-197 -157,-246" fill="#fdcb6e" fill-opacity="0.2"/><polygon points="100,60 -100,-286 -37,-316" fill="#fdcb6e" fill-opacity="0.2"/><polygon points="100,60 31,-334 100,-340" fill="#fdcb6e" fill-opacity="0.2"/><polygon points="100,60 169,-334 237,-316" fill="#fdcb6e" fill-opacity="0.2"/><polygon points="100,60 300,-286 357,-246" fill="#fdcb6e" fill-opacity="0.2"/><polygon points="100,60 406,-197 446,-140" fill="#fdcb6e" fill-opacity="0.2"/><polygon points="100,60 476,-77 494,-9" fill="#fdcb6e" fill-opacity="0.2"/><line x1="20" y1="40" x2="20" y2="40" stroke="#fdcb6e" stroke-width="3" stroke-linecap="round" stroke-opacity="0.85"/><g opacity="1"><path d="M82 130 L50 96 L10 116 Q25.7 144.6 22 160 Q33.6 176.3 32 204 Q50.9 206.6 70 244 Q71.0 198.6 88 182 Z" fill="#111" stroke="#111" stroke-width="8.2" stroke-linejoin="round"/><path d="M82 130 L50 96 L10 116 Q25.7 144.6 22 160 Q33.6 176.3 32 204 Q50.9 206.6 70 244 Q71.0 198.6 88 182 Z" fill="#e9e4da" stroke="#e9e4da" stroke-width="3" stroke-linejoin="round"/><path d="M50 96 L10 116" fill="none" stroke="#111" stroke-width="1.8" stroke-linecap="round"/><path d="M50 96 L22 160" fill="none" stroke="#111" stroke-width="1.8" stroke-linecap="round"/><path d="M50 96 L32 204" fill="none" stroke="#111" stroke-width="1.8" stroke-linecap="round"/></g><g opacity="1"><circle cx="82" cy="130" r="16.6" fill="#111"/><polyline points="82.0,130.0 50.0,96.0" fill="none" stroke="#111" stroke-width="23.2" stroke-linecap="round" stroke-linejoin="round"/><polyline points="50.0,96.0 86.0,58.0" fill="none" stroke="#111" stroke-width="28.2" stroke-linecap="round" stroke-linejoin="round"/><circle cx="86" cy="58" r="16.6" fill="#111"/><polyline points="90.0,180.0 74.0,206.0" fill="none" stroke="#111" stroke-width="20.2" stroke-linecap="round" stroke-linejoin="round"/><polyline points="74.0,206.0 72.0,232.0 66.0,244.0" fill="none" stroke="#111" stroke-width="14.2" stroke-linecap="round" stroke-linejoin="round"/><path d="M66 244 L54 246 M66 244 L62 254" fill="none" stroke="#111" stroke-width="9.2" stroke-linecap="round" stroke-linejoin="round"/><circle cx="82" cy="130" r="14.0" fill="#fff"/><polyline points="82.0,130.0 50.0,96.0" fill="none" stroke="#fff" stroke-width="18" stroke-linecap="round" stroke-linejoin="round"/><polyline points="50.0,96.0 86.0,58.0" fill="none" stroke="#fff" stroke-width="23" stroke-linecap="round" stroke-linejoin="round"/><circle cx="86" cy="58" r="14.0" fill="#fff"/><polyline points="90.0,180.0 74.0,206.0" fill="none" stroke="#fff" stroke-width="15" stroke-linecap="round" stroke-linejoin="round"/><polyline points="74.0,206.0 72.0,232.0 66.0,244.0" fill="none" stroke="#fff" stroke-width="9" stroke-linecap="round" stroke-linejoin="round"/><path d="M66 244 L54 246 M66 244 L62 254" fill="none" stroke="#fff" stroke-width="4" stroke-linecap="round" stroke-linejoin="round"/></g><g opacity="1"><polygon points="92.0,180.0 86.0,214.0 96.0,218.0 100.0,210.0 106.0,218.0 110.0,182.0" fill="#111" stroke="#111" stroke-width="10.2" stroke-linejoin="round"/><polyline points="100.0,110.0 100.0,122.0" fill="none" stroke="#111" stroke-width="18.2" stroke-linecap="round" stroke-linejoin="round"/><path d="M80 124 Q100 114 120 124 Q128 156 116 180 Q100 190 84 180 Q72 156 80 124 Z" fill="#111" stroke="#111" stroke-width="11.2" stroke-linejoin="round"/><polyline points="110.0,180.0 126.0,206.0" fill="none" stroke="#111" stroke-width="21.2" stroke-linecap="round" stroke-linejoin="round"/><polyline points="126.0,206.0 128.0,232.0 134.0,244.0" fill="none" stroke="#111" stroke-width="15.2" stroke-linecap="round" stroke-linejoin="round"/><path d="M134 244 L146 246 M134 244 L138 254" fill="none" stroke="#111" stroke-width="9.2" stroke-linecap="round" stroke-linejoin="round"/><polygon points="92.0,180.0 86.0,214.0 96.0,218.0 100.0,210.0 106.0,218.0 110.0,182.0" fill="#fff" stroke="#fff" stroke-width="5" stroke-linejoin="round"/><polyline points="100.0,110.0 100.0,122.0" fill="none" stroke="#fff" stroke-width="13" stroke-linecap="round" stroke-linejoin="round"/><path d="M80 124 Q100 114 120 124 Q128 156 116 180 Q100 190 84 180 Q72 156 80 124 Z" fill="#fff" stroke="#fff" stroke-width="6" stroke-linejoin="round"/><polyline points="110.0,180.0 126.0,206.0" fill="none" stroke="#fff" stroke-width="16" stroke-linecap="round" stroke-linejoin="round"/><polyline points="126.0,206.0 128.0,232.0 134.0,244.0" fill="none" stroke="#fff" stroke-width="10" stroke-linecap="round" stroke-linejoin="round"/><path d="M134 244 L146 246 M134 244 L138 254" fill="none" stroke="#fff" stroke-width="4" stroke-linecap="round" stroke-linejoin="round"/></g><g opacity="1"><path d="M118 130 L150 96 L190 116 Q174.3 144.6 178 160 Q166.4 176.3 168 204 Q149.1 206.6 130 244 Q129.0 198.6 112 182 Z" fill="#111" stroke="#111" stroke-width="8.2" stroke-linejoin="round"/><path d="M118 130 L150 96 L190 116 Q174.3 144.6 178 160 Q166.4 176.3 168 204 Q149.1 206.6 130 244 Q129.0 198.6 112 182 Z" fill="#e9e4da" stroke="#e9e4da" stroke-width="3" stroke-linejoin="round"/><path d="M150 96 L190 116" fill="none" stroke="#111" stroke-width="1.8" stroke-linecap="round"/><path d="M150 96 L178 160" fill="none" stroke="#111" stroke-width="1.8" stroke-linecap="round"/><path d="M150 96 L168 204" fill="none" stroke="#111" stroke-width="1.8" stroke-linecap="round"/></g><g opacity="1"><circle cx="118" cy="130" r="16.6" fill="#111"/><polyline points="118.0,130.0 150.0,96.0" fill="none" stroke="#111" stroke-width="23.2" stroke-linecap="round" stroke-linejoin="round"/><polyline points="150.0,96.0 116.0,58.0" fill="none" stroke="#111" stroke-width="28.2" stroke-linecap="round" stroke-linejoin="round"/><circle cx="116" cy="58" r="16.6" fill="#111"/><circle cx="118" cy="130" r="14.0" fill="#fff"/><polyline points="118.0,130.0 150.0,96.0" fill="none" stroke="#fff" stroke-width="18" stroke-linecap="round" stroke-linejoin="round"/><polyline points="150.0,96.0 116.0,58.0" fill="none" stroke="#fff" stroke-width="23" stroke-linecap="round" stroke-linejoin="round"/><circle cx="116" cy="58" r="14.0" fill="#fff"/></g><g opacity="1"><polygon points="94.0,94.0 70.0,84.0 78.0,94.0 64.0,98.0 82.0,104.0 92.0,108.0" fill="#111" stroke="#111" stroke-width="8.2" stroke-linejoin="round"/><circle cx="102" cy="100" r="14.6" fill="#111"/><polygon points="110.0,93.0 133.4,110.1 110.0,106.0" fill="#111" stroke="#111" stroke-width="8.2" stroke-linejoin="round"/><polygon points="94.0,94.0 70.0,84.0 78.0,94.0 64.0,98.0 82.0,104.0 92.0,108.0" fill="#fff" stroke="#fff" stroke-width="3" stroke-linejoin="round"/><circle cx="102" cy="100" r="12.0" fill="#fff"/><polygon points="110.0,93.0 133.4,110.1 110.0,106.0" fill="#fff" stroke="#fff" stroke-width="3" stroke-linejoin="round"/><circle cx="106" cy="97" r="2.6" fill="#111"/></g><line x1="20" y1="10" x2="20" y2="70" stroke="#fdcb6e" stroke-width="7" stroke-linecap="round"/><line x1="180" y1="10" x2="180" y2="70" stroke="#fdcb6e" stroke-width="7" stroke-linecap="round"/><line x1="200" y1="10" x2="200" y2="70" stroke="#fdcb6e" stroke-width="7" stroke-linecap="round"/><polygon points="144.1,288.9 112.5,286.2 127.0,303.8 107.7,291.7 114.3,322.7 100.9,294.0 92.8,315.3 93.8,292.5 70.2,313.7 88.3,287.7 65.9,291.4 86.0,280.9 55.9,271.1 87.5,273.8 73.0,256.2 92.3,268.3 85.7,237.3 99.1,266.0 107.2,244.7 106.2,267.5 129.8,246.3 111.7,272.3 134.1,268.6 114.0,279.1" fill="#FFD23F" stroke="#FF5A1F" stroke-width="2" stroke-linejoin="round"/></svg>
