<svg xmlns="http://www.w3.org/2000/svg" viewBox="30 0 140 125"><path d="M44,66 Q68,38 88,50 Q100,57 112,50 Q132,38 156,66 Q100,72 44,66 Z" fill="#FF3B5C"></path><path d="M44,66 Q100,74 156,66 Q134,104 100,104 Q66,104 44,66 Z" fill="#FF3B5C"></path><path d="M50,67 Q100,76 150,67" fill="none" stroke="#0A0D13" stroke-width="4"></path><path d="M80,70 L86,70 L83,88 Z" fill="#E8ECF2"></path><path d="M114,70 L120,70 L117,88 Z" fill="#E8ECF2"></path><path d="M100,104 Q102,114 100,120 Q98,114 100,104 Z" fill="#FF3B5C"></path><text x="100" y="134" text-anchor="middle" font-family="Chakra Petch, sans-serif" font-weight="700" font-size="10" letter-spacing="4" fill="#E8ECF2">CRIMSON CLAN</text></svg>
